<svg xmlns="http://www.w3.org/2000/svg" viewBox="0 0 175 137" fill="black">
<path d="M 88,40 L 87,41 L 85,41 L 84,42 L 83,42 L 82,43 L 82,44 L 81,45 L 81,50 L 84,53 L 85,53 L 86,54 L 93,54 L 94,53 L 95,53 L 98,50 L 98,45 L 97,44 L 97,43 L 96,42 L 95,42 L 94,41 L 92,41 L 91,40 Z" />
<path d="M 43,40 L 42,41 L 39,41 L 38,42 L 37,42 L 36,43 L 35,43 L 30,48 L 30,50 L 29,51 L 29,59 L 30,60 L 30,62 L 32,64 L 32,65 L 33,66 L 33,67 L 35,69 L 35,76 L 33,78 L 33,79 L 30,82 L 30,83 L 29,84 L 29,86 L 28,87 L 28,90 L 29,91 L 29,94 L 30,95 L 30,96 L 32,98 L 32,99 L 34,101 L 35,101 L 37,103 L 39,103 L 40,104 L 49,104 L 50,103 L 52,103 L 57,98 L 57,97 L 58,96 L 58,95 L 59,94 L 59,92 L 60,91 L 60,90 L 62,88 L 64,88 L 65,87 L 115,87 L 116,88 L 117,88 L 119,90 L 119,91 L 120,92 L 120,94 L 121,95 L 121,96 L 122,97 L 122,98 L 127,103 L 129,103 L 130,104 L 139,104 L 140,103 L 142,103 L 143,102 L 144,102 L 148,98 L 148,97 L 149,96 L 149,95 L 150,94 L 150,86 L 149,85 L 149,83 L 148,82 L 148,81 L 146,79 L 146,78 L 145,77 L 145,76 L 144,75 L 144,70 L 145,69 L 145,68 L 146,67 L 146,66 L 147,65 L 147,64 L 149,62 L 149,61 L 150,60 L 150,59 L 151,58 L 151,53 L 150,52 L 150,51 L 149,50 L 149,49 L 148,48 L 148,47 L 144,43 L 143,43 L 142,42 L 141,42 L 140,41 L 136,41 L 135,40 L 134,41 L 128,41 L 127,42 L 126,42 L 123,45 L 123,46 L 122,47 L 122,50 L 121,51 L 121,53 L 120,54 L 120,56 L 119,57 L 119,58 L 117,60 L 117,61 L 113,65 L 112,65 L 110,67 L 108,67 L 107,68 L 104,68 L 103,69 L 100,69 L 99,68 L 96,68 L 95,67 L 93,67 L 92,66 L 87,66 L 86,67 L 84,67 L 83,68 L 79,68 L 78,69 L 76,69 L 75,68 L 72,68 L 71,67 L 69,67 L 67,65 L 66,65 L 62,61 L 62,60 L 60,58 L 60,57 L 59,56 L 59,54 L 58,53 L 58,50 L 57,49 L 57,48 L 56,47 L 56,45 L 54,43 L 53,43 L 51,41 L 48,41 L 47,40 Z" />
</svg>