<?xml version="1.0" standalone="no"?>
<!DOCTYPE svg PUBLIC "-//W3C//DTD SVG 20010904//EN"
 "http://www.w3.org/TR/2001/REC-SVG-20010904/DTD/svg10.dtd">
<svg version="1.0" xmlns="http://www.w3.org/2000/svg"
 width="512.000000pt" height="512.000000pt" viewBox="0 0 512.000000 512.000000"
 preserveAspectRatio="xMidYMid meet">

<g transform="translate(0.000000,512.000000) scale(0.100000,-0.100000)"
fill="#000000" stroke="none">
<path d="M1390 4904 c-377 -48 -680 -192 -935 -449 -257 -257 -399 -549 -444
-915 -49 -388 72 -812 321 -1127 74 -94 612 -639 650 -659 72 -37 148 7 148
87 0 42 -1 43 -308 353 -170 171 -329 338 -353 371 -122 163 -202 342 -246
555 -25 119 -24 382 0 500 58 271 180 503 362 685 114 115 202 180 335 249
217 112 373 150 620 150 133 0 185 -5 270 -23 245 -52 457 -161 643 -330 58
-53 73 -61 107 -61 34 0 48 8 112 65 145 131 324 235 494 288 150 47 246 61
419 61 242 -1 400 -39 615 -150 130 -67 221 -134 325 -239 105 -104 172 -195
239 -325 65 -127 97 -214 125 -342 83 -384 -11 -793 -255 -1103 -34 -44 -515
-532 -1068 -1085 l-1006 -1005 -423 423 -423 422 -43 0 c-80 0 -125 -76 -87
-148 25 -47 918 -930 948 -937 16 -4 40 -4 55 -1 19 5 341 320 1012 989 540
540 1032 1035 1091 1100 217 236 338 467 401 767 33 153 33 429 1 587 -63 315
-201 572 -427 799 -224 225 -482 363 -798 426 -157 32 -413 32 -572 0 -254
-50 -472 -150 -677 -310 l-58 -45 -57 45 c-280 218 -579 325 -928 333 -82 2
-166 1 -185 -1z"/>
<path d="M1958 4071 c-171 -67 -281 -262 -264 -466 30 -364 395 -538 629 -299
101 102 152 268 128 415 -25 157 -131 301 -256 348 -71 27 -172 27 -237 2z
m180 -195 c128 -66 157 -301 53 -417 -72 -80 -156 -82 -228 -6 -86 92 -96 254
-22 357 54 74 132 100 197 66z"/>
<path d="M2922 4069 c-124 -49 -230 -195 -254 -350 -31 -204 71 -413 240 -492
152 -71 336 -13 436 137 157 237 82 578 -154 694 -75 37 -190 42 -268 11z
m187 -194 c134 -69 160 -303 48 -422 -72 -76 -157 -75 -226 3 -128 146 -54
434 112 434 21 0 51 -7 66 -15z"/>
<path d="M4382 3885 c-49 -41 -49 -72 -4 -172 49 -107 68 -168 82 -253 20
-129 8 -285 -31 -398 -27 -78 -25 -123 6 -155 31 -30 62 -37 106 -23 43 14 63
51 96 172 23 88 27 118 27 269 1 156 -1 178 -27 269 -39 141 -106 280 -146
300 -43 23 -75 20 -109 -9z"/>
<path d="M1302 3279 c-264 -131 -260 -566 7 -696 147 -73 330 1 407 166 121
254 -36 561 -287 561 -53 0 -77 -6 -127 -31z m203 -203 c70 -75 71 -207 2
-282 -41 -43 -81 -51 -124 -25 -100 63 -99 271 2 329 40 23 85 15 120 -22z"/>
<path d="M3562 3280 c-269 -135 -265 -570 8 -699 232 -109 480 125 439 414
-34 243 -252 382 -447 285z m189 -197 c42 -36 61 -83 60 -154 0 -103 -66 -187
-136 -174 -57 10 -115 97 -115 173 0 50 24 115 55 148 42 44 89 46 136 7z"/>
<path d="M2431 3084 c-117 -31 -153 -60 -448 -357 -261 -262 -283 -287 -316
-357 -47 -100 -62 -167 -61 -275 3 -344 299 -618 639 -591 110 8 198 38 293
97 19 12 25 12 45 0 94 -60 229 -101 327 -101 28 0 85 7 127 16 280 58 475
294 477 579 1 108 -14 175 -61 275 -33 70 -55 95 -316 357 -298 299 -331 326
-452 358 -73 19 -182 18 -254 -1z m264 -217 c35 -18 124 -100 302 -279 272
-273 291 -299 314 -423 30 -161 -66 -347 -216 -421 -149 -72 -307 -52 -446 59
-73 58 -105 57 -186 -6 -173 -137 -395 -125 -546 29 -85 86 -129 225 -108 339
23 124 43 151 309 418 246 247 282 278 351 304 56 21 166 12 226 -20z"/>
<path d="M1285 1597 c-18 -15 -28 -36 -32 -64 -5 -39 -2 -46 31 -79 33 -33 41
-36 74 -31 44 7 92 55 92 92 0 86 -102 137 -165 82z"/>
</g>
</svg>
